<?xml version="1.0" encoding="UTF-8"?>
<svg width="2000" height="2000" version="1.1" viewBox="-10 -10 2000 2000" xmlns="http://www.w3.org/2000/svg" xmlns:cc="http://creativecommons.org/ns#" xmlns:dc="http://purl.org/dc/elements/1.1/" xmlns:rdf="http://www.w3.org/1999/02/22-rdf-syntax-ns#">
 <metadata>
  <rdf:RDF>
   <cc:Work rdf:about="">
    <dc:format>image/svg+xml</dc:format>
    <dc:type rdf:resource="http://purl.org/dc/dcmitype/StillImage"/>
    <dc:title>Produce by Acme CAD Converter</dc:title>
   </cc:Work>
  </rdf:RDF>
 </metadata>
 <title>Produce by Acme CAD Converter</title>
 <desc>Produce by Acme CAD Converter</desc>
<g stroke="#000000">
   <!-- Grid -->
   <rect x="0" y="0" width="240" height="240" fill="#ffffff" stroke-width="4"/>
   <path
      style="fill:none;stroke:#000000;stroke-width:1px;stroke-linecap:butt;stroke-linejoin:miter;stroke-opacity:1"
      d="m 0,60 240,0"/>
   <path
      style="fill:none;stroke:#000000;stroke-width:1px;stroke-linecap:butt;stroke-linejoin:miter;stroke-opacity:1"
      d="m 0,120 240,0"/>
   <path
      style="fill:none;stroke:#000000;stroke-width:1px;stroke-linecap:butt;stroke-linejoin:miter;stroke-opacity:1"
      d="m 0,180 240,0"/>
   <path
      style="fill:none;stroke:#000000;stroke-width:1px;stroke-linecap:butt;stroke-linejoin:miter;stroke-opacity:1"
      d="m 60,0 0,240"/>
   <path
      style="fill:none;stroke:#000000;stroke-width:1px;stroke-linecap:butt;stroke-linejoin:miter;stroke-opacity:1"
      d="m 120,0 0,240"/>
   <path
      style="fill:none;stroke:#000000;stroke-width:1px;stroke-linecap:butt;stroke-linejoin:miter;stroke-opacity:1"
      d="m 180,0 0,240"/>

   <!-- plus -->
	<path d="M41.267,18.557H26.832V4.134C26.832,1.851,24.99,0,22.707,0c-2.283,0-4.124,1.851-4.124,4.135v14.432H4.141
		c-2.283,0-4.139,1.851-4.138,4.135c-0.001,1.141,0.46,2.187,1.207,2.934c0.748,0.749,1.78,1.222,2.92,1.222h14.453V41.27
		c0,1.142,0.453,2.176,1.201,2.922c0.748,0.748,1.777,1.211,2.919,1.211c2.282,0,4.129-1.851,4.129-4.133V26.857h14.435
		c2.283,0,4.134-1.867,4.133-4.15C45.399,20.425,43.548,18.557,41.267,18.557z"
      transform="translate(318.733,71.443), scale(2)" />

   <!-- Arrow -->
   <svg xmlns="http://www.w3.org/2000/svg" viewBox="0 0 285 820">
   <defs>
      <marker id="arrowhead" markerWidth="10" markerHeight="7" 
      refX="0" refY="3.5" orient="auto">
         <polygon points="0 0, 10 3.5, 0 7" />
      </marker>
   </defs>
   <line x1="0" y1="50" x2="40" y2="50" stroke="#000" 
   stroke-width="2" marker-end="url(#arrowhead)" />
   </svg>
</g>
<!-- I piece -->
<g stroke="#000000"
transform="translate(480,0)">
   <rect x="0" y="0" width="60" height="240" fill="#00ffff" stroke-width="4"/>
   <path
      style="fill:none;stroke:#000000;stroke-width:1px;stroke-linecap:butt;stroke-linejoin:miter;stroke-opacity:1"
      d="m 0,60 60,0"/>
   <path
      style="fill:none;stroke:#000000;stroke-width:1px;stroke-linecap:butt;stroke-linejoin:miter;stroke-opacity:1"
      d="m 0,120 60,0"/>
   <path
      style="fill:none;stroke:#000000;stroke-width:1px;stroke-linecap:butt;stroke-linejoin:miter;stroke-opacity:1"
      d="m 0,180 60,0"/>
</g>

<!-- stack -->

<g stroke="#000000"
transform="translate(900)">
   <path
      style="fill:none;stroke:#000000;stroke-width:10px;stroke-linecap:butt;stroke-linejoin:miter;stroke-opacity:1"
      d="m 0,240 90,0"/>
   <path
      style="fill:none;stroke:#000000;stroke-width:10px;stroke-linecap:butt;stroke-linejoin:miter;stroke-opacity:1"
      d="m 0,0 0,245"/>
   <path
      style="fill:none;stroke:#000000;stroke-width:10px;stroke-linecap:butt;stroke-linejoin:miter;stroke-opacity:1"
      d="m 90,0 0,245"/>,
</g>

<!-- stack input 1 -->
<g stroke="#000000"
transform="translate(915,175) scale(0.25)">
   <!-- grid1 -->
   <rect x="0" y="0" width="240" height="240" fill="#ffffff" stroke-width="4"/>
   <path
      style="fill:none;stroke:#000000;stroke-width:1px;stroke-linecap:butt;stroke-linejoin:miter;stroke-opacity:1"
      d="m 0,60 240,0"/>
   <path
      style="fill:none;stroke:#000000;stroke-width:1px;stroke-linecap:butt;stroke-linejoin:miter;stroke-opacity:1"
      d="m 0,120 240,0"/>
   <path
      style="fill:none;stroke:#000000;stroke-width:1px;stroke-linecap:butt;stroke-linejoin:miter;stroke-opacity:1"
      d="m 0,180 240,0"/>
   <path
      style="fill:none;stroke:#000000;stroke-width:1px;stroke-linecap:butt;stroke-linejoin:miter;stroke-opacity:1"
      d="m 60,0 0,240"/>
   <path
      style="fill:none;stroke:#000000;stroke-width:1px;stroke-linecap:butt;stroke-linejoin:miter;stroke-opacity:1"
      d="m 120,0 0,240"/>
   <path
      style="fill:none;stroke:#000000;stroke-width:1px;stroke-linecap:butt;stroke-linejoin:miter;stroke-opacity:1"
      d="m 180,0 0,240"/>,
   <!-- I1  -->
   <rect x="0" y="0" width="60" height="240" fill="#00ffff" stroke-width="4"/>
   <path
      style="fill:none;stroke:#000000;stroke-width:1px;stroke-linecap:butt;stroke-linejoin:miter;stroke-opacity:1"
      d="m 0,60 60,0"/>
   <path
      style="fill:none;stroke:#000000;stroke-width:1px;stroke-linecap:butt;stroke-linejoin:miter;stroke-opacity:1"
      d="m 0,120 60,0"/>
   <path
      style="fill:none;stroke:#000000;stroke-width:1px;stroke-linecap:butt;stroke-linejoin:miter;stroke-opacity:1"
      d="m 0,180 60,0"/>
</g>

<!-- stack input 2 -->
<g stroke="#000000"
transform="translate(915,110) scale(0.25)">
   <!-- grid1 -->
   <rect x="0" y="0" width="240" height="240" fill="#ffffff" stroke-width="4"/>
   <path
      style="fill:none;stroke:#000000;stroke-width:1px;stroke-linecap:butt;stroke-linejoin:miter;stroke-opacity:1"
      d="m 0,60 240,0"/>
   <path
      style="fill:none;stroke:#000000;stroke-width:1px;stroke-linecap:butt;stroke-linejoin:miter;stroke-opacity:1"
      d="m 0,120 240,0"/>
   <path
      style="fill:none;stroke:#000000;stroke-width:1px;stroke-linecap:butt;stroke-linejoin:miter;stroke-opacity:1"
      d="m 0,180 240,0"/>
   <path
      style="fill:none;stroke:#000000;stroke-width:1px;stroke-linecap:butt;stroke-linejoin:miter;stroke-opacity:1"
      d="m 60,0 0,240"/>
   <path
      style="fill:none;stroke:#000000;stroke-width:1px;stroke-linecap:butt;stroke-linejoin:miter;stroke-opacity:1"
      d="m 120,0 0,240"/>
   <path
      style="fill:none;stroke:#000000;stroke-width:1px;stroke-linecap:butt;stroke-linejoin:miter;stroke-opacity:1"
      d="m 180,0 0,240"/>,
   <!-- I1  -->
   <rect x="60" y="0" width="60" height="240" fill="#00ffff" stroke-width="4"/>
   <path
      style="fill:none;stroke:#000000;stroke-width:1px;stroke-linecap:butt;stroke-linejoin:miter;stroke-opacity:1"
      d="m 60,60 60,0"/>
   <path
      style="fill:none;stroke:#000000;stroke-width:1px;stroke-linecap:butt;stroke-linejoin:miter;stroke-opacity:1"
      d="m 60,120 60,0"/>
   <path
      style="fill:none;stroke:#000000;stroke-width:1px;stroke-linecap:butt;stroke-linejoin:miter;stroke-opacity:1"
      d="m 60,180 60,0"/>
</g>
<g stroke="#000000"
transform="translate(895,45)">
  <circle cx="50" cy="50" r="5" />
  <circle cx="50" cy="30" r="5" />
</g>

<!-- stack input last -->
<g stroke="#000000"
transform="translate(915,0) scale(0.25)">
   <!-- grid1 -->
   <rect x="0" y="0" width="240" height="240" fill="#ffffff" stroke-width="4"/>
   <path
      style="fill:none;stroke:#000000;stroke-width:1px;stroke-linecap:butt;stroke-linejoin:miter;stroke-opacity:1"
      d="m 0,60 240,0"/>
   <path
      style="fill:none;stroke:#000000;stroke-width:1px;stroke-linecap:butt;stroke-linejoin:miter;stroke-opacity:1"
      d="m 0,120 240,0"/>
   <path
      style="fill:none;stroke:#000000;stroke-width:1px;stroke-linecap:butt;stroke-linejoin:miter;stroke-opacity:1"
      d="m 0,180 240,0"/>
   <path
      style="fill:none;stroke:#000000;stroke-width:1px;stroke-linecap:butt;stroke-linejoin:miter;stroke-opacity:1"
      d="m 60,0 0,240"/>
   <path
      style="fill:none;stroke:#000000;stroke-width:1px;stroke-linecap:butt;stroke-linejoin:miter;stroke-opacity:1"
      d="m 120,0 0,240"/>
   <path
      style="fill:none;stroke:#000000;stroke-width:1px;stroke-linecap:butt;stroke-linejoin:miter;stroke-opacity:1"
      d="m 180,0 0,240"/>,
   <!-- I1  -->
   <rect x="0" y="180" width="240" height="60" fill="#00ffff" stroke-width="4"/>
   <path
      style="fill:none;stroke:#000000;stroke-width:1px;stroke-linecap:butt;stroke-linejoin:miter;stroke-opacity:1"
      d="m 60,180 0,60"/>
   <path
      style="fill:none;stroke:#000000;stroke-width:1px;stroke-linecap:butt;stroke-linejoin:miter;stroke-opacity:1"
      d="m 120,180 0,60"/>
   <path
      style="fill:none;stroke:#000000;stroke-width:1px;stroke-linecap:butt;stroke-linejoin:miter;stroke-opacity:1"
      d="m 180,180 0,60"/>
</g>
<g stroke="#000000">
   <!-- Arrow -->
   <svg xmlns="http://www.w3.org/2000/svg" viewBox="0 0 100 900">
   <defs>
      <marker id="arrowhead" markerWidth="10" markerHeight="7" 
      refX="0" refY="3.5" orient="auto">
         <polygon points="0 0, 10 3.5, 0 7" />
      </marker>
   </defs>
   <line x1="0" y1="120" x2="-270" y2="150" stroke="#000" 
   stroke-width="2" marker-end="url(#arrowhead)" />
   </svg>
</g>

<g stroke="#000000"
transform="translate(0, 360)">
   <!-- Grid -->
   <rect x="0" y="0" width="240" height="240" fill="#ffffff" stroke-width="4"/>
   <path
      style="fill:none;stroke:#000000;stroke-width:1px;stroke-linecap:butt;stroke-linejoin:miter;stroke-opacity:1"
      d="m 0,60 240,0"/>
   <path
      style="fill:none;stroke:#000000;stroke-width:1px;stroke-linecap:butt;stroke-linejoin:miter;stroke-opacity:1"
      d="m 0,120 240,0"/>
   <path
      style="fill:none;stroke:#000000;stroke-width:1px;stroke-linecap:butt;stroke-linejoin:miter;stroke-opacity:1"
      d="m 0,180 240,0"/>
   <path
      style="fill:none;stroke:#000000;stroke-width:1px;stroke-linecap:butt;stroke-linejoin:miter;stroke-opacity:1"
      d="m 60,0 0,240"/>
   <path
      style="fill:none;stroke:#000000;stroke-width:1px;stroke-linecap:butt;stroke-linejoin:miter;stroke-opacity:1"
      d="m 120,0 0,240"/>
   <path
      style="fill:none;stroke:#000000;stroke-width:1px;stroke-linecap:butt;stroke-linejoin:miter;stroke-opacity:1"
      d="m 180,0 0,240"/>

   <!-- I piece -->
   <rect x="0" y="180" width="240" height="60" fill="#00ffff" stroke-width="4"/>
   <path
      style="fill:none;stroke:#000000;stroke-width:1px;stroke-linecap:butt;stroke-linejoin:miter;stroke-opacity:1"
      d="m 60,180 0,60"/>
   <path
      style="fill:none;stroke:#000000;stroke-width:1px;stroke-linecap:butt;stroke-linejoin:miter;stroke-opacity:1"
      d="m 120,180 0,60"/>
   <path
      style="fill:none;stroke:#000000;stroke-width:1px;stroke-linecap:butt;stroke-linejoin:miter;stroke-opacity:1"
      d="m 180,180 0,60"/>
   <!-- plus -->
	<path d="M41.267,18.557H26.832V4.134C26.832,1.851,24.99,0,22.707,0c-2.283,0-4.124,1.851-4.124,4.135v14.432H4.141
		c-2.283,0-4.139,1.851-4.138,4.135c-0.001,1.141,0.46,2.187,1.207,2.934c0.748,0.749,1.78,1.222,2.92,1.222h14.453V41.27
		c0,1.142,0.453,2.176,1.201,2.922c0.748,0.748,1.777,1.211,2.919,1.211c2.282,0,4.129-1.851,4.129-4.133V26.857h14.435
		c2.283,0,4.134-1.867,4.133-4.15C45.399,20.425,43.548,18.557,41.267,18.557z"
      transform="translate(318.733,71.443), scale(2)" />

   <!-- O piece -->
   <rect x="480" y="60" width="120" height="120" fill="#ffff00" stroke-width="4"/>
   <path
      style="fill:none;stroke:#000000;stroke-width:1px;stroke-linecap:butt;stroke-linejoin:miter;stroke-opacity:1"
      d="m 480,120 120,0"/>
   <path
      style="fill:none;stroke:#000000;stroke-width:1px;stroke-linecap:butt;stroke-linejoin:miter;stroke-opacity:1"
      d="m 540,60 0,120"/>

   <svg xmlns="http://www.w3.org/2000/svg" viewBox="0 0 285 820">
   <defs>
      <marker id="arrowhead" markerWidth="10" markerHeight="7" 
      refX="0" refY="3.5" orient="auto">
         <polygon points="0 0, 10 3.5, 0 7" />
      </marker>
   </defs>
   <line x1="0" y1="50" x2="40" y2="50" stroke="#000" 
   stroke-width="2" marker-end="url(#arrowhead)" />
   </svg>
</g>

<!-- stack -->

<g stroke="#000000"
transform="translate(900, 360)">
   <path
      style="fill:none;stroke:#000000;stroke-width:10px;stroke-linecap:butt;stroke-linejoin:miter;stroke-opacity:1"
      d="m 0,360 90,0"/>
   <path
      style="fill:none;stroke:#000000;stroke-width:10px;stroke-linecap:butt;stroke-linejoin:miter;stroke-opacity:1"
      d="m 0,0 0,365"/>
   <path
      style="fill:none;stroke:#000000;stroke-width:10px;stroke-linecap:butt;stroke-linejoin:miter;stroke-opacity:1"
      d="m 90,0 0,365"/>,
</g>

<!-- stack input 1 -->
<g stroke="#000000"
transform="translate(915,655) scale(0.25)">
   <!-- grid1 -->
   <rect x="0" y="0" width="240" height="240" fill="#ffffff" stroke-width="4"/>
   <path
      style="fill:none;stroke:#000000;stroke-width:1px;stroke-linecap:butt;stroke-linejoin:miter;stroke-opacity:1"
      d="m 0,60 240,0"/>
   <path
      style="fill:none;stroke:#000000;stroke-width:1px;stroke-linecap:butt;stroke-linejoin:miter;stroke-opacity:1"
      d="m 0,120 240,0"/>
   <path
      style="fill:none;stroke:#000000;stroke-width:1px;stroke-linecap:butt;stroke-linejoin:miter;stroke-opacity:1"
      d="m 0,180 240,0"/>
   <path
      style="fill:none;stroke:#000000;stroke-width:1px;stroke-linecap:butt;stroke-linejoin:miter;stroke-opacity:1"
      d="m 60,0 0,240"/>
   <path
      style="fill:none;stroke:#000000;stroke-width:1px;stroke-linecap:butt;stroke-linejoin:miter;stroke-opacity:1"
      d="m 120,0 0,240"/>
   <path
      style="fill:none;stroke:#000000;stroke-width:1px;stroke-linecap:butt;stroke-linejoin:miter;stroke-opacity:1"
      d="m 180,0 0,240"/>,
   <!-- I1  -->
   <rect x="0" y="0" width="60" height="240" fill="#00ffff" stroke-width="4"/>
   <path
      style="fill:none;stroke:#000000;stroke-width:1px;stroke-linecap:butt;stroke-linejoin:miter;stroke-opacity:1"
      d="m 0,60 60,0"/>
   <path
      style="fill:none;stroke:#000000;stroke-width:1px;stroke-linecap:butt;stroke-linejoin:miter;stroke-opacity:1"
      d="m 0,120 60,0"/>
   <path
      style="fill:none;stroke:#000000;stroke-width:1px;stroke-linecap:butt;stroke-linejoin:miter;stroke-opacity:1"
      d="m 0,180 60,0"/>
</g>

<!-- stack input 2 -->
<g stroke="#000000"
transform="translate(915,590) scale(0.25)">
   <!-- grid1 -->
   <rect x="0" y="0" width="240" height="240" fill="#ffffff" stroke-width="4"/>
   <path
      style="fill:none;stroke:#000000;stroke-width:1px;stroke-linecap:butt;stroke-linejoin:miter;stroke-opacity:1"
      d="m 0,60 240,0"/>
   <path
      style="fill:none;stroke:#000000;stroke-width:1px;stroke-linecap:butt;stroke-linejoin:miter;stroke-opacity:1"
      d="m 0,120 240,0"/>
   <path
      style="fill:none;stroke:#000000;stroke-width:1px;stroke-linecap:butt;stroke-linejoin:miter;stroke-opacity:1"
      d="m 0,180 240,0"/>
   <path
      style="fill:none;stroke:#000000;stroke-width:1px;stroke-linecap:butt;stroke-linejoin:miter;stroke-opacity:1"
      d="m 60,0 0,240"/>
   <path
      style="fill:none;stroke:#000000;stroke-width:1px;stroke-linecap:butt;stroke-linejoin:miter;stroke-opacity:1"
      d="m 120,0 0,240"/>
   <path
      style="fill:none;stroke:#000000;stroke-width:1px;stroke-linecap:butt;stroke-linejoin:miter;stroke-opacity:1"
      d="m 180,0 0,240"/>,
   <!-- I1  -->
   <rect x="60" y="0" width="60" height="240" fill="#00ffff" stroke-width="4"/>
   <path
      style="fill:none;stroke:#000000;stroke-width:1px;stroke-linecap:butt;stroke-linejoin:miter;stroke-opacity:1"
      d="m 60,60 60,0"/>
   <path
      style="fill:none;stroke:#000000;stroke-width:1px;stroke-linecap:butt;stroke-linejoin:miter;stroke-opacity:1"
      d="m 60,120 60,0"/>
   <path
      style="fill:none;stroke:#000000;stroke-width:1px;stroke-linecap:butt;stroke-linejoin:miter;stroke-opacity:1"
      d="m 60,180 60,0"/>
</g>
<g stroke="#000000"
transform="translate(895,525)">
  <circle cx="50" cy="50" r="5" />
  <circle cx="50" cy="30" r="5" />
</g>

<!-- stack input last -->
<g stroke="#000000"
transform="translate(915,480) scale(0.25)">
   <!-- grid1 -->
   <rect x="0" y="0" width="240" height="240" fill="#ffffff" stroke-width="4"/>
   <path
      style="fill:none;stroke:#000000;stroke-width:1px;stroke-linecap:butt;stroke-linejoin:miter;stroke-opacity:1"
      d="m 0,60 240,0"/>
   <path
      style="fill:none;stroke:#000000;stroke-width:1px;stroke-linecap:butt;stroke-linejoin:miter;stroke-opacity:1"
      d="m 0,120 240,0"/>
   <path
      style="fill:none;stroke:#000000;stroke-width:1px;stroke-linecap:butt;stroke-linejoin:miter;stroke-opacity:1"
      d="m 0,180 240,0"/>
   <path
      style="fill:none;stroke:#000000;stroke-width:1px;stroke-linecap:butt;stroke-linejoin:miter;stroke-opacity:1"
      d="m 60,0 0,240"/>
   <path
      style="fill:none;stroke:#000000;stroke-width:1px;stroke-linecap:butt;stroke-linejoin:miter;stroke-opacity:1"
      d="m 120,0 0,240"/>
   <path
      style="fill:none;stroke:#000000;stroke-width:1px;stroke-linecap:butt;stroke-linejoin:miter;stroke-opacity:1"
      d="m 180,0 0,240"/>,
   <!-- I1  -->
   <rect x="0" y="180" width="240" height="60" fill="#00ffff" stroke-width="4"/>
   <path
      style="fill:none;stroke:#000000;stroke-width:1px;stroke-linecap:butt;stroke-linejoin:miter;stroke-opacity:1"
      d="m 60,180 0,60"/>
   <path
      style="fill:none;stroke:#000000;stroke-width:1px;stroke-linecap:butt;stroke-linejoin:miter;stroke-opacity:1"
      d="m 120,180 0,60"/>
   <path
      style="fill:none;stroke:#000000;stroke-width:1px;stroke-linecap:butt;stroke-linejoin:miter;stroke-opacity:1"
      d="m 180,180 0,60"/>
   <!-- O piece -->
   <rect x="0" y="0" width="120" height="120" fill="#ffff00" stroke-width="4"/>
   <path
      style="fill:none;stroke:#000000;stroke-width:1px;stroke-linecap:butt;stroke-linejoin:miter;stroke-opacity:1"
      d="m 0,60 120,0"/>
   <path
      style="fill:none;stroke:#000000;stroke-width:1px;stroke-linecap:butt;stroke-linejoin:miter;stroke-opacity:1"
      d="m 60,0 0,120"/>
</g>

<g stroke="#000000"
transform="translate(895,405)">
  <circle cx="50" cy="50" r="5" />
  <circle cx="50" cy="30" r="5" />
</g>

<g stroke="#000000"
transform="translate(915,360) scale(0.25)">
   <!-- grid1 -->
   <rect x="0" y="0" width="240" height="240" fill="#ffffff" stroke-width="4"/>
   <path
      style="fill:none;stroke:#000000;stroke-width:1px;stroke-linecap:butt;stroke-linejoin:miter;stroke-opacity:1"
      d="m 0,60 240,0"/>
   <path
      style="fill:none;stroke:#000000;stroke-width:1px;stroke-linecap:butt;stroke-linejoin:miter;stroke-opacity:1"
      d="m 0,120 240,0"/>
   <path
      style="fill:none;stroke:#000000;stroke-width:1px;stroke-linecap:butt;stroke-linejoin:miter;stroke-opacity:1"
      d="m 0,180 240,0"/>
   <path
      style="fill:none;stroke:#000000;stroke-width:1px;stroke-linecap:butt;stroke-linejoin:miter;stroke-opacity:1"
      d="m 60,0 0,240"/>
   <path
      style="fill:none;stroke:#000000;stroke-width:1px;stroke-linecap:butt;stroke-linejoin:miter;stroke-opacity:1"
      d="m 120,0 0,240"/>
   <path
      style="fill:none;stroke:#000000;stroke-width:1px;stroke-linecap:butt;stroke-linejoin:miter;stroke-opacity:1"
      d="m 180,0 0,240"/>,
   <!-- I1  -->
   <rect x="0" y="180" width="240" height="60" fill="#00ffff" stroke-width="4"/>
   <path
      style="fill:none;stroke:#000000;stroke-width:1px;stroke-linecap:butt;stroke-linejoin:miter;stroke-opacity:1"
      d="m 60,180 0,60"/>
   <path
      style="fill:none;stroke:#000000;stroke-width:1px;stroke-linecap:butt;stroke-linejoin:miter;stroke-opacity:1"
      d="m 120,180 0,60"/>
   <path
      style="fill:none;stroke:#000000;stroke-width:1px;stroke-linecap:butt;stroke-linejoin:miter;stroke-opacity:1"
      d="m 180,180 0,60"/>
   <!-- O piece -->
   <rect x="120" y="60" width="120" height="120" fill="#ffff00" stroke-width="4"/>
   <path
      style="fill:none;stroke:#000000;stroke-width:1px;stroke-linecap:butt;stroke-linejoin:miter;stroke-opacity:1"
      d="m 120,120 120,0"/>
   <path
      style="fill:none;stroke:#000000;stroke-width:1px;stroke-linecap:butt;stroke-linejoin:miter;stroke-opacity:1"
      d="m 180,60 0,120"/>
</g>

<g stroke="#000000"
transform="translate(480,800)">
  <circle cx="50" cy="-50" r="20" />
  <circle cx="50" cy="150" r="20" />
  <circle cx="50" cy="50" r="20" />

</g>

</svg>
