<?xml version="1.0" encoding="UTF-8"?>
<svg width="1500" height="500" version="1.1" viewBox="0 0 1500 500" xmlns="http://www.w3.org/2000/svg" xmlns:cc="http://creativecommons.org/ns#" xmlns:dc="http://purl.org/dc/elements/1.1/" xmlns:rdf="http://www.w3.org/1999/02/22-rdf-syntax-ns#">
 <metadata>
  <rdf:RDF>
   <cc:Work rdf:about="">
    <dc:format>image/svg+xml</dc:format>
    <dc:type rdf:resource="http://purl.org/dc/dcmitype/StillImage"/>
    <dc:title>Produce by Acme CAD Converter</dc:title>
   </cc:Work>
  </rdf:RDF>
 </metadata>
 <title>Produce by Acme CAD Converter</title>
 <desc>Produce by Acme CAD Converter</desc>
 <g stroke="#000000">
    <!-- I piece -->
    <rect x="0" y="120" width="60" height="240" fill="#00ffff" stroke-width="4"/>
    <path
       style="fill:none;stroke:#000000;stroke-width:1px;stroke-linecap:butt;stroke-linejoin:miter;stroke-opacity:1"
       d="m 0,180 60,0"/>
    <path
       style="fill:none;stroke:#000000;stroke-width:1px;stroke-linecap:butt;stroke-linejoin:miter;stroke-opacity:1"
       d="m 0,240 60,0"/>
    <path
       style="fill:none;stroke:#000000;stroke-width:1px;stroke-linecap:butt;stroke-linejoin:miter;stroke-opacity:1"
       d="m 0,300 60,0"/>
    <!-- O piece -->
    <rect x="120" y="240" width="120" height="120" fill="#ffff00" stroke-width="4"/>
    <path
       style="fill:none;stroke:#000000;stroke-width:1px;stroke-linecap:butt;stroke-linejoin:miter;stroke-opacity:1"
       d="m 120,300 120,0"/>
    <path
       style="fill:none;stroke:#000000;stroke-width:1px;stroke-linecap:butt;stroke-linejoin:miter;stroke-opacity:1"
       d="m 180,240 0,120"/>
    <!-- J piece 1 -->
    <polygon fill="#0000FF" fill-opacity="1" stroke="#000000" stroke-width="4"
        points="300,360 480,360 480,300 360,300 360,240 300,240"/>
    <path
       style="fill:none;stroke:#000000;stroke-width:1px;stroke-linecap:butt;stroke-linejoin:miter;stroke-opacity:1"
       d="m 360,300 0,60"/>
    <path
       style="fill:none;stroke:#000000;stroke-width:1px;stroke-linecap:butt;stroke-linejoin:miter;stroke-opacity:1"
       d="m 420,300 0,60"/>
    <path
       style="fill:none;stroke:#000000;stroke-width:1px;stroke-linecap:butt;stroke-linejoin:miter;stroke-opacity:1"
       d="m 300,300 60,0"/>
    <!-- J piece 2 -->
    <polygon fill="#0000FF" fill-opacity="1" stroke="#000000" stroke-width="4"
        points="300,180 420,180 420,240 480,240 480,180 480,120 360,120 300,120"/>
    <path
       style="fill:none;stroke:#000000;stroke-width:1px;stroke-linecap:butt;stroke-linejoin:miter;stroke-opacity:1"
       d="m 360,120 0,60"/>
    <path
       style="fill:none;stroke:#000000;stroke-width:1px;stroke-linecap:butt;stroke-linejoin:miter;stroke-opacity:1"
       d="m 420,120 0,60"/>
    <path
       style="fill:none;stroke:#000000;stroke-width:1px;stroke-linecap:butt;stroke-linejoin:miter;stroke-opacity:1"
       d="m 420,180 60,0"/>
    <!-- Arrow -->
    <path d="M0,15.571c0.001,1.702,1.383,3.081,3.085,3.083l17.528-0.002l-4.738,4.739c-1.283,1.284-1.349,3.301-0.145,4.507
        c1.205,1.201,3.222,1.138,4.507-0.146l9.896-9.898c1.287-1.283,1.352-3.301,0.146-4.506c-0.033-0.029-0.068-0.051-0.1-0.08
        c-0.041-0.043-0.07-0.094-0.113-0.139l-9.764-9.762c-1.268-1.266-3.27-1.316-4.474-0.111c-1.205,1.205-1.153,3.208,0.111,4.476
        l4.755,4.754H3.085C1.381,12.485,0,13.865,0,15.571z"
        transform="translate(600,180), scale(4)" />
 </g>
  <g stroke="#000000"
  transform="translate(840,0)">
    <!-- I piece -->
    <rect x="0" y="120" width="60" height="240" fill="#00ffff" stroke-width="4"/>
    <path
       style="fill:none;stroke:#000000;stroke-width:1px;stroke-linecap:butt;stroke-linejoin:miter;stroke-opacity:1"
       d="m 0,180 60,0"/>
    <path
       style="fill:none;stroke:#000000;stroke-width:1px;stroke-linecap:butt;stroke-linejoin:miter;stroke-opacity:1"
       d="m 0,240 60,0"/>
    <path
       style="fill:none;stroke:#000000;stroke-width:1px;stroke-linecap:butt;stroke-linejoin:miter;stroke-opacity:1"
       d="m 0,300 60,0"/>
    <!-- O piece -->
    <rect x="120" y="240" width="120" height="120" fill="#ffff00" stroke-width="4"/>
    <path
       style="fill:none;stroke:#000000;stroke-width:1px;stroke-linecap:butt;stroke-linejoin:miter;stroke-opacity:1"
       d="m 120,300 120,0"/>
    <path
       style="fill:none;stroke:#000000;stroke-width:1px;stroke-linecap:butt;stroke-linejoin:miter;stroke-opacity:1"
       d="m 180,240 0,120"/>
    <!-- J piece 1 -->
    <polygon fill="#0000FF" fill-opacity="1" stroke="#000000" stroke-width="4"
        points="300,360 480,360 480,300 360,300 360,240 300,240"
        transform="translate(420, -120) rotate(90)"/>
    <path
        style="fill:none;stroke:#000000;stroke-width:1px;stroke-linecap:butt;stroke-linejoin:miter;stroke-opacity:1"
        d="m 360,300 0,60"
        transform="translate(420, -120) rotate(90)"/>
    <path
        style="fill:none;stroke:#000000;stroke-width:1px;stroke-linecap:butt;stroke-linejoin:miter;stroke-opacity:1"
        d="m 420,300 0,60"
        transform="translate(420, -120) rotate(90)"/>
    <path
       style="fill:none;stroke:#000000;stroke-width:1px;stroke-linecap:butt;stroke-linejoin:miter;stroke-opacity:1"
       d="m 300,300 60,0"
        transform="translate(420, -120) rotate(90)"/>
    <!-- J piece 2 -->
    <polygon fill="#0000FF" fill-opacity="1" stroke="#000000" stroke-width="4"
        points="300,180 420,180 420,240 480,240 480,180 480,120 360,120 300,120"
        transform="translate(-240, 0)" />
    <path
        style="fill:none;stroke:#000000;stroke-width:1px;stroke-linecap:butt;stroke-linejoin:miter;stroke-opacity:1"
        d="m 360,120 0,60"
        transform="translate(-240, 0)" />  
    <path
        style="fill:none;stroke:#000000;stroke-width:1px;stroke-linecap:butt;stroke-linejoin:miter;stroke-opacity:1"
        d="m 420,120 0,60"
        transform="translate(-240, 0)" />  
    <path
        style="fill:none;stroke:#000000;stroke-width:1px;stroke-linecap:butt;stroke-linejoin:miter;stroke-opacity:1"
        d="m 420,180 60,0"
        transform="translate(-240, 0)" />  
 </g>
</svg>
